<svg width="512" height="512" viewBox="0 0 100 100" xmlns="http://www.w3.org/2000/svg">
  <!-- Light beam background -->
  <defs>
    <linearGradient id="lightBeam512" x1="0%" y1="0%" x2="100%" y2="100%">
      <stop offset="0%" style="stop-color:#FBBF24;stop-opacity:0.3" />
      <stop offset="50%" style="stop-color:#FBBF24;stop-opacity:0.15" />
      <stop offset="100%" style="stop-color:#FBBF24;stop-opacity:0.05" />
    </linearGradient>
    <linearGradient id="sail512" x1="0%" y1="0%" x2="100%" y2="100%">
      <stop offset="0%" style="stop-color:#0EA5A8" />
      <stop offset="100%" style="stop-color:#0F172A" />
    </linearGradient>
  </defs>
  
  <!-- Background circle -->
  <circle cx="50" cy="50" r="48" fill="#F8FAFC" stroke="#0F172A" stroke-width="2"/>
  
  <!-- Light beam rays -->
  <path d="M20 25 L35 35 L25 45 Z" fill="url(#lightBeam512)" opacity="0.6"/>
  <path d="M25 15 L45 25 L30 35 Z" fill="url(#lightBeam512)" opacity="0.4"/>
  <path d="M35 10 L55 20 L40 30 Z" fill="url(#lightBeam512)" opacity="0.3"/>
  
  <!-- Sailboat hull -->
  <path d="M35 70 Q50 75 65 70 L62 80 Q50 85 38 80 Z" fill="#0F172A"/>
  
  <!-- Mast -->
  <line x1="50" y1="30" x2="50" y2="70" stroke="#0F172A" stroke-width="2" stroke-linecap="round"/>
  
  <!-- Main sail -->
  <path d="M50 30 Q65 35 68 50 Q65 65 50 70 Z" fill="url(#sail512)" opacity="0.9"/>
  
  <!-- Jib sail -->
  <path d="M50 35 Q40 38 35 45 Q38 52 50 55 Z" fill="#0EA5A8" opacity="0.8"/>
  
  <!-- Water line -->
  <path d="M15 78 Q25 75 35 78 Q45 81 55 78 Q65 75 75 78 Q85 81 95 78" 
        stroke="#0EA5A8" stroke-width="2" fill="none" opacity="0.7"/>
</svg>