<svg viewBox="0 0 512 512" xmlns="http://www.w3.org/2000/svg">
  <defs>
    <!-- Teal gradient for background -->
    <linearGradient id="tealBg" x1="0%" y1="0%" x2="100%" y2="100%">
      <stop offset="0%" style="stop-color:#6EE7E0"/>
      <stop offset="50%" style="stop-color:#4ECDC4"/>
      <stop offset="100%" style="stop-color:#0EA5A8"/>
    </linearGradient>
    
    <!-- Sailboat colors -->
    <linearGradient id="sailDark" x1="0%" y1="0%" x2="100%" y2="100%">
      <stop offset="0%" style="stop-color:#0F172A"/>
      <stop offset="100%" style="stop-color:#1E293B"/>
    </linearGradient>
    
    <linearGradient id="sailLight" x1="0%" y1="0%" x2="100%" y2="100%">
      <stop offset="0%" style="stop-color:#64FFDA"/>
      <stop offset="100%" style="stop-color:#4ECDC4"/>
    </linearGradient>
  </defs>

  <!-- Rounded square background (teal) -->
  <rect x="64" y="64" width="384" height="384" rx="96" ry="96" fill="url(#tealBg)"/>
  
  <!-- Sailboat hull -->
  <path d="M180 380 Q220 400 256 400 Q292 400 332 380 L320 365 L192 365 Z" fill="url(#sailDark)"/>
  
  <!-- Main mast -->
  <rect x="254" y="160" width="4" height="205" fill="url(#sailDark)"/>
  
  <!-- Main sail (large) -->
  <path d="M256 160 L200 200 L256 365 Z" fill="url(#sailDark)"/>
  
  <!-- Jib sail (smaller, front) -->
  <path d="M256 180 L300 200 L256 300 Z" fill="url(#sailLight)" opacity="0.9"/>
  
  <!-- Water reflection lines (subtle) -->
  <path d="M150 400 Q180 405 220 400 Q256 395 290 400 Q320 405 350 400" 
        stroke="#ffffff" stroke-width="3" fill="none" opacity="0.3"/>
  <path d="M170 415 Q200 420 230 415 Q256 410 280 415 Q300 420 330 415" 
        stroke="#ffffff" stroke-width="2" fill="none" opacity="0.2"/>
  
  <!-- Light beam (golden dot) -->
  <circle cx="320" cy="220" r="8" fill="#FBBF24"/>
  <circle cx="320" cy="220" r="4" fill="#FCD34D" opacity="0.8"/>
</svg>