<svg viewBox="0 0 100 100" xmlns="http://www.w3.org/2000/svg">
  <!-- Light beam (subtle glow effect) -->
  <defs>
    <linearGradient id="lightBeam" x1="0%" y1="0%" x2="100%" y2="100%">
      <stop offset="0%" style="stop-color:#FBBF24;stop-opacity:0.3" />
      <stop offset="100%" style="stop-color:#FBBF24;stop-opacity:0.1" />
    </linearGradient>
    <linearGradient id="sailGradient" x1="0%" y1="0%" x2="100%" y2="100%">
      <stop offset="0%" style="stop-color:#0F172A;stop-opacity:1" />
      <stop offset="100%" style="stop-color:#475569;stop-opacity:1" />
    </linearGradient>
  </defs>
  
  <!-- Subtle light beam background -->
  <path d="M25 25 L75 25 L75 75 L25 75 Z" fill="url(#lightBeam)" opacity="0.2"/>
  
  <!-- Sailboat hull -->
  <path d="M25 70 Q35 75 50 75 Q65 75 75 70 L70 65 L30 65 Z" fill="#0F172A"/>
  
  <!-- Main mast -->
  <line x1="50" y1="65" x2="50" y2="25" stroke="#0F172A" stroke-width="2"/>
  
  <!-- Main sail -->
  <path d="M50 25 L35 35 L50 65 Z" fill="url(#sailGradient)"/>
  
  <!-- Jib sail (smaller front sail) -->
  <path d="M50 30 L65 35 L50 55 Z" fill="#4ECDC4" opacity="0.8"/>
  
  <!-- Subtle water line -->
  <path d="M20 75 Q30 77 40 75 Q50 73 60 75 Q70 77 80 75" stroke="#4ECDC4" stroke-width="1.5" fill="none" opacity="0.6"/>
  
  <!-- Light beam accent (subtle) -->
  <circle cx="72" cy="32" r="2" fill="#FBBF24" opacity="0.7"/>
</svg>